<?xml version="1.0" standalone="no"?>
<!DOCTYPE svg PUBLIC "-//W3C//DTD SVG 20010904//EN"
 "http://www.w3.org/TR/2001/REC-SVG-20010904/DTD/svg10.dtd">
<svg version="1.0" xmlns="http://www.w3.org/2000/svg"
 width="700.000000pt" height="700.000000pt" viewBox="0 0 700.000000 700.000000"
 preserveAspectRatio="xMidYMid meet">
<metadata>
Created by potrace 1.11, written by Peter Selinger 2001-2013
</metadata>
<g transform="translate(0.000000,700.000000) scale(0.100000,-0.100000)"
fill="#000000" stroke="none">
<path d="M3710 6714 c-101 -27 -161 -63 -245 -148 -60 -61 -92 -103 -128 -173
-55 -105 -118 -290 -141 -413 -9 -47 -18 -96 -21 -109 -26 -134 -26 -431 0
-581 3 -14 7 -38 10 -55 36 -212 137 -493 248 -688 22 -37 38 -70 36 -72 -2
-2 -28 -15 -57 -30 -76 -38 -174 -64 -265 -72 l-79 -6 7 70 c15 165 4 354 -29
520 -13 64 -62 228 -88 298 -57 148 -194 387 -280 487 -13 15 -34 42 -48 60
-14 18 -72 82 -130 142 -110 114 -251 217 -345 254 -249 97 -493 39 -677 -162
-100 -108 -149 -243 -142 -395 7 -190 83 -372 265 -641 96 -140 135 -187 260
-305 227 -215 560 -405 859 -490 36 -10 69 -22 74 -26 20 -17 -60 -208 -115
-274 -13 -16 -41 -47 -62 -69 l-37 -40 -87 93 c-153 164 -307 282 -506 386
-114 59 -346 146 -427 159 -19 3 -50 10 -68 15 -18 5 -36 10 -40 10 -12 1 -84
10 -127 17 -22 3 -125 7 -230 10 -252 5 -367 -16 -520 -94 -86 -45 -192 -146
-230 -222 -28 -56 -67 -160 -60 -160 3 0 0 -12 -6 -27 -14 -39 -14 -192 2
-255 48 -205 201 -359 445 -451 132 -50 317 -94 474 -115 73 -9 347 -9 433 1
260 29 584 136 824 271 l63 36 16 -25 c52 -79 101 -267 92 -355 l-3 -35 -45 5
c-71 6 -278 5 -351 -3 -338 -36 -648 -162 -936 -379 -265 -200 -430 -398 -500
-600 -38 -110 -39 -238 -3 -347 64 -189 205 -335 382 -396 65 -22 86 -24 193
-21 103 3 133 8 214 35 120 40 226 95 371 190 63 41 117 78 120 81 3 3 28 23
55 45 167 132 340 340 468 560 84 146 192 410 213 519 3 20 9 38 13 40 11 7
167 -50 209 -75 67 -41 162 -121 162 -137 0 -5 -39 -44 -86 -87 -258 -236
-450 -564 -538 -920 -60 -244 -77 -552 -41 -762 11 -60 61 -203 91 -258 44
-79 150 -178 236 -218 40 -20 87 -38 103 -41 17 -2 53 -9 80 -15 48 -9 199 -8
240 2 102 26 217 96 284 172 104 119 193 322 236 535 47 239 58 394 41 585
-19 198 -57 368 -128 565 -33 91 -121 279 -163 346 l-26 42 64 30 c80 39 209
73 284 75 l58 2 -2 -60 c-7 -235 -3 -346 17 -450 5 -27 12 -64 15 -82 32 -194
141 -453 274 -653 273 -409 575 -634 851 -633 240 1 492 188 562 417 22 73 28
192 15 281 -27 175 -176 463 -350 680 -47 58 -191 203 -257 258 -190 159 -520
334 -767 407 -83 25 -83 27 -54 111 32 95 79 176 138 239 l57 61 40 -48 c211
-251 519 -455 841 -557 75 -24 112 -34 146 -40 8 -1 39 -8 69 -14 186 -38 552
-51 670 -23 333 78 500 245 538 538 38 287 -108 510 -418 642 -71 31 -190 71
-190 65 0 -3 -8 0 -19 5 -23 13 -260 57 -356 66 -73 8 -272 8 -315 1 -14 -3
-52 -7 -85 -11 -33 -3 -67 -8 -75 -10 -8 -2 -33 -6 -55 -10 -173 -24 -474
-133 -657 -237 -67 -38 -72 -39 -85 -22 -35 47 -101 280 -99 349 l1 40 160 -3
c201 -4 296 6 490 53 260 62 507 189 760 392 402 323 539 656 394 960 -27 57
-90 144 -137 191 -193 191 -476 206 -797 42 -120 -62 -303 -183 -400 -264
-298 -251 -549 -656 -655 -1053 -6 -24 -15 -43 -19 -43 -5 0 -36 8 -69 19 -84
26 -177 80 -245 143 l-59 53 91 84 c329 300 543 732 587 1180 3 31 7 70 10 86
5 41 5 295 0 322 -3 11 -7 43 -11 70 -37 276 -206 481 -447 542 -91 23 -242
26 -318 5z m298 -235 c138 -46 217 -171 246 -389 8 -52 8 -253 1 -290 -2 -14
-6 -52 -9 -85 -23 -285 -161 -626 -349 -860 -69 -86 -227 -239 -237 -229 -57
59 -200 415 -227 564 -2 14 -8 41 -13 60 -37 144 -45 432 -16 585 2 11 7 40
12 65 4 25 8 47 9 50 1 3 5 21 9 40 46 210 152 409 252 470 83 52 202 59 322
19z m-1905 -507 c105 -53 258 -186 345 -302 15 -19 35 -44 45 -55 10 -11 46
-60 79 -110 148 -221 243 -481 274 -750 8 -70 7 -325 -1 -333 -7 -8 -144 35
-254 81 -280 115 -538 298 -712 507 -74 89 -176 247 -229 356 -120 243 -115
412 15 537 87 85 169 118 283 113 62 -3 85 -9 155 -44z m3632 -528 c86 -18
185 -105 235 -208 74 -154 29 -309 -149 -511 -71 -80 -251 -229 -371 -307
-153 -99 -383 -191 -572 -230 -132 -26 -468 -35 -468 -12 0 32 76 237 125 339
65 134 102 198 163 284 82 117 114 154 216 256 190 187 470 354 654 389 65 13
104 13 167 0z m-4495 -1188 c175 -19 264 -37 414 -87 201 -66 358 -154 524
-293 75 -63 191 -182 200 -206 4 -11 -197 -111 -308 -153 -144 -54 -315 -99
-423 -111 -26 -4 -68 -9 -94 -12 -57 -7 -268 -6 -303 0 -14 3 -41 7 -60 10
-78 10 -250 49 -320 73 -287 97 -401 242 -364 460 32 193 168 297 414 319 36
3 66 7 67 8 5 5 189 -1 253 -8z m2404 -51 c269 -60 472 -256 546 -527 29 -109
23 -284 -14 -393 -104 -306 -385 -502 -701 -490 -108 4 -128 8 -223 41 -219
79 -390 272 -452 511 -30 118 -12 319 40 438 67 156 195 288 350 362 81 39
101 45 190 62 49 9 218 7 264 -4z m2176 -610 c223 -40 318 -68 445 -131 174
-85 247 -189 240 -341 -6 -121 -58 -226 -143 -288 -47 -34 -130 -70 -187 -80
-112 -20 -294 -25 -415 -11 -36 4 -79 9 -97 11 -237 28 -505 129 -708 268
-103 70 -181 139 -299 265 -39 41 -39 42 -20 57 33 25 215 111 304 143 106 38
207 68 265 78 17 3 46 9 65 14 19 5 66 12 105 15 38 4 72 9 75 12 6 7 323 -4
370 -12z m-3292 -756 c34 -1 62 -6 62 -11 0 -5 -18 -63 -41 -130 -109 -328
-324 -650 -564 -845 -151 -122 -390 -257 -515 -289 -36 -9 -95 -17 -131 -17
-129 -1 -250 86 -316 229 -35 74 -37 169 -5 257 46 128 181 287 366 432 21 17
44 35 50 40 7 6 19 15 28 20 9 6 38 25 64 44 135 94 414 212 570 240 33 6 70
13 84 16 14 3 63 8 110 11 47 3 86 7 87 8 2 1 35 0 151 -5z m1827 -315 c112
-41 449 -227 495 -274 3 -3 32 -27 65 -55 132 -110 221 -212 324 -369 136
-211 195 -359 195 -496 0 -105 -21 -155 -95 -229 -166 -165 -371 -157 -581 23
-227 195 -410 460 -518 750 -16 44 -49 169 -66 255 -16 75 -27 365 -17 427 l5
31 71 -23 c40 -12 95 -31 122 -40z m-966 -240 c91 -178 161 -376 190 -539 6
-33 13 -71 16 -85 9 -47 18 -166 19 -245 0 -78 -11 -235 -19 -258 -2 -7 -6
-28 -9 -47 -27 -174 -103 -380 -176 -475 -78 -101 -170 -141 -309 -133 -101 6
-193 48 -245 112 -40 48 -82 134 -91 185 -3 19 -8 38 -11 42 -2 4 -7 38 -10
76 -29 310 32 652 166 928 50 104 142 251 201 320 64 76 210 216 221 213 7 -3
32 -44 57 -94z"/>
</g>
</svg>
